<?xml version="1.0" encoding="UTF-8"?>
<svg xmlns="http://www.w3.org/2000/svg" viewBox="0 0 74.82 53.97">
  <defs>
    <style>
      .cls-1 {
        fill: gray;
      }

      .cls-1, .cls-2, .cls-3 {
        stroke-width: 0px;
      }

      .cls-4 {
        stroke: #fff;
        stroke-miterlimit: 10;
        stroke-width: .3px;
      }

      .cls-4, .cls-2 {
        fill: #1e5ca4;
      }

      .cls-3 {
        fill: #3e3e3e;
      }
    </style>
  </defs>
  <g id="Elliefan">
    <polygon class="cls-1" points="31.47 53.97 39.17 53.97 43.07 41.47 33.87 42.17 31.47 53.97"/>
    <path class="cls-3" d="m44.33,27.06c-3.65-1.96-5.88-6.42-6.46-9.39-.2-1.6-.1-2.9.1-3.8l1.6-11h-14.5c-1.9,0-8.7.4-14.7,5.6-5.7,4.9-7.2,11.1-7.6,13-.7,3.8-1.4,8-1.9,12.4C.07,41.27-.13,47.97.07,53.97h8.7l1.7-13.6c4.8.4,10.1.7,15.7.7,5.3,0,10.2-.3,14.8-.7v13.6h8.4c1.3-8.1,2.42-17.1,3.72-25.2-2.99.29-5.56-.07-8.76-1.71Z"/>
    <path class="cls-1" d="m11.97,53.97h8.6c.9-3.9,1.9-7.9,2.8-11.8-3.3-.1-6.5-.3-9.8-.4l-1.6,12.2Z"/>
    <path class="cls-2" d="m49.75,0s8.57,0,12.57,1.11c5.39,1.76,7.35,4.25,9.7,7.74,3.89,6.49,2.64,20.23,2.54,20.23-1.52,11-10.59,10.47-10.59,10.47-1.56.03-3.08-.43-4.36-1.32-1.2-.79-1.84-1.82-2.09-2.46-.25-.62-.39-1.29-.39-1.97,0-2.97,2.41-5.39,5.39-5.39.89,0,1.59.71,1.59,1.61,0,.58-.31,1.11-.82,1.39-.18.11-.43.18-.6.22-.18.04-.85.11-1.17.39-.36.29-.64.75-.64,1.25,0,.53.21,1.04.57,1.39.64.64,1.49,1,2.41,1,2.42,0,4.37-1.97,4.36-4.39,0,0,0,0,0,0,0-2.18-1.45-4.11-3.37-4.97-.28-.14-.74-.25-1.17-.36-.35-.07-.71-.13-1.06-.18-1.84-.21-3.01-.93-3.53-3.15,0,0-1.06,3.91-4.46,4.81-.21.11-.87.23-1.18.3-.32.07-1.07.11-1.17.11-3.58.22-7.37-.93-9.99-3.64,0,0-2.36-2.07-3.28-6.18-.21-1-.02-.13-.27-1.81-.01-1.85.43-3.86.47-4.35.32-1.71,1.81-11.85,1.81-11.85"/>
  </g>
  <g id="Ear_flap" data-name="Ear flap">
    <path class="cls-4" d="m50.04,11.37c0,.62-.05,1.64-.66,2.31-.66.62-1.68.67-2.29.67h-6.52c-1.88,0-3.01,0-3.77.1-.41.05-.92.26-1.17.36-.1.05-.1,0-.05-.05L50.44-.5c.05-.05.1-.05.05.05-.1.26-.3.77-.36,1.18-.1.77-.1,1.9-.1,3.8v6.83h0Zm1.89-10.43"/>
  </g>
</svg>