<?xml version="1.0" encoding="UTF-8"?>
<svg xmlns="http://www.w3.org/2000/svg" viewBox="0 0 79.16 53.97">
  <defs>
    <style>
      .cls-1 {
        font-size: 16px;
      }

      .cls-1, .cls-2 {
        fill: #fff;
        font-family: Poppins-Bold, Poppins;
        font-weight: 700;
      }

      .cls-3 {
        fill: #3e3e3e;
      }

      .cls-3, .cls-4, .cls-5, .cls-6 {
        stroke-width: 0px;
      }

      .cls-4 {
        fill: gray;
      }

      .cls-5, .cls-7 {
        fill: gray;
      }

      .cls-2 {
        font-size: 9px;
      }

      .cls-7 {
        stroke: #fff;
        stroke-miterlimit: 10;
        stroke-width: .3px;
      }

      .cls-6 {
        fill: #1e5ca4;
      }
    </style>
  </defs>
  <g id="Tail">
    <path class="cls-3" d="M16.84,11.36c-.19-.46-.38-.84-.54-1.11-.02-.19-.08-.42-.25-.52-.35-.21-.99.17-1.8.84-1.61,1.35-2.6,2.78-2.74,2.98,0,0,0,0,0,0,0,0,0,0,0,0,0,0-2.39,3.35-5.09,6.94-1.45,1.93-2.18,2.9-2.91,3.76-.72.85-1.4,1.73-2.13,2.56C.37,27.97-.09,28.49.01,28.62c.05.06.23,0,.38-.06,1.94-.83,7.3-5.68,9.62-4.74.22.09.1.1.52.35,2.31,1.4,5.88.91,6.85-.79.11-.19.14-1.11.21-2.93.05-1.57.09-2.37.08-2.95-.04-2.49-.02-2.9-.15-3.52-.28-1.3-.47-2.12-.68-2.61Z"/>
  </g>
  <g id="Elliefan">
    <path class="cls-4" d="M35.72,53.97h8.58c.77-4.23,1.54-8.46,2.32-12.68-1.52.74-3.38,1.49-5.56,2.08-1.51.41-2.91.68-4.17.85-.39,3.25-.78,6.5-1.17,9.75Z"/>
    <path class="cls-3" d="M46.35,25c-.64-.58-3.33-3.13-3.9-7.33-.22-1.59-.06-2.93.1-3.8.53-3.78,1.07-7.55,1.6-11.33-3.36-.48-8.69-.83-14.96.61-4.11.94-9.15,2.1-13.82,6.26-5.52,4.93-7.26,11.13-8.19,14.44-.73,2.59-.96,4.55-1.37,9.96-.39,5.07-.84,11.91-1.17,20.15h8.7l1.7-13.6c3.1,1.37,8.83,3.41,16.24,3.27,6.64-.12,11.81-1.95,14.8-3.27-.18,4.53-.36,9.07-.54,13.6h9.16c.54-8.53,1.08-17.06,1.62-25.58-1.18.05-3-.02-5.08-.68-1.04-.33-2.99-.98-4.9-2.7Z"/>
    <path class="cls-5" d="M16.54,53.97h8.6c.69-3.16,1.39-6.32,2.08-9.49-1.39-.1-2.96-.3-4.66-.65-1.73-.35-3.27-.8-4.6-1.25-.47,3.79-.95,7.59-1.42,11.38Z"/>
    <path class="cls-6" d="M54.09,0s8.57,0,12.57,1.11c5.39,1.76,7.35,4.25,9.7,7.74,3.89,6.49,2.64,20.23,2.54,20.23-1.52,11-10.59,10.47-10.59,10.47-1.56.03-3.08-.43-4.36-1.32-1.2-.79-1.84-1.82-2.09-2.46-.25-.62-.39-1.29-.39-1.97,0-2.91,2.31-5.29,5.2-5.39.62-.02,1.25.25,1.56.79.48.84.15,1.8-.59,2.21-.18.11-.43.18-.6.22-.18.04-.85.11-1.17.39-.36.29-.64.75-.64,1.25,0,.53.21,1.04.57,1.39,1.37,1.39,3.74,1.44,5.66-.54.73-.76,1.11-1.79,1.11-2.85h0c0-2.18-1.45-4.11-3.37-4.97-.28-.14-1.03-.37-1.46-.48l-1.26-.44c-2.11-.98-2.49-2.23-3.01-4.45,0,.64-.07,2.23-1.16,3.7-.87,1.18-1.95,1.69-2.79,2.08-1.79.84-3.39.87-4.22.88-2.38.03-4.14-.7-4.99-1.06-1.63-.69-2.85-1.59-3.69-2.33,0,0-2.36-2.07-3.28-6.18-.21-1-.02-.13-.27-1.81-.01-1.85.43-3.86.47-4.35.6-3.95,1.21-7.9,1.81-11.85"/>
  </g>
  <g id="Ear_flap" data-name="Ear flap">
    <path class="cls-7" d="M54.61,11.37c0,.62-.05,1.64-.66,2.31-.66.62-1.68.67-2.29.67h-6.52c-1.88,0-3.01,0-3.77.1-.41.05-.92.26-1.17.36-.1.05-.1,0-.05-.05L55.01-.5c.05-.05.1-.05.05.05-.1.26-.3.77-.36,1.18-.1.77-.1,1.9-.1,3.8v6.83h0ZM56.49.94"/>
  </g>
  <g id="H_G2" data-name="H&amp;amp;G2">
    <text class="cls-1" transform="translate(12.81 27.11)"><tspan x="0" y="0">H</tspan></text>
    <text class="cls-2" transform="translate(25.54 30.39)"><tspan x="0" y="0">&amp;</tspan></text>
    <text class="cls-1" transform="translate(34.54 38.51)"><tspan x="0" y="0">G</tspan></text>
  </g>
</svg>