<?xml version="1.0" encoding="UTF-8"?>
<svg xmlns="http://www.w3.org/2000/svg" viewBox="0 0 79.1 53.97">
  <defs>
    <style>
      .cls-1 {
        fill: #3e3e3e;
      }

      .cls-1, .cls-2, .cls-3, .cls-4 {
        stroke-width: 0px;
      }

      .cls-2 {
        fill: gray;
      }

      .cls-3, .cls-5 {
        fill: gray;
      }

      .cls-5 {
        stroke: #fff;
        stroke-miterlimit: 10;
        stroke-width: .3px;
      }

      .cls-4 {
        fill: #1e5ca4;
      }
    </style>
  </defs>
  <g id="Tail">
    <path class="cls-1" d="M16.86,11.38c-.19-.46-.38-.84-.53-1.11-.02-.19-.08-.42-.25-.52-.35-.21-.99.17-1.8.84-1.62,1.34-2.6,2.77-2.74,2.97,0,0,0,0,0,0h0s-2.39,3.34-5.1,6.93c-1.45,1.93-2.18,2.89-2.92,3.75-.72.84-1.4,1.72-2.13,2.56C.37,27.97-.09,28.49.01,28.62c.05.06.23,0,.38-.06,1.94-.83,7.31-5.67,9.63-4.72.22.09.1.1.52.35,2.31,1.4,5.88.92,6.85-.78.11-.19.14-1.11.21-2.93.06-1.57.09-2.37.09-2.95-.03-2.49-.01-2.9-.15-3.52-.28-1.3-.47-2.12-.67-2.61Z"/>
  </g>
  <g id="Elliefan">
    <path class="cls-2" d="M36.48,53.97h8.58c.77-4.23,1.54-8.46,2.32-12.68-1.52.74-3.38,1.49-5.56,2.08-1.51.41-2.91.68-4.17.85-.39,3.25-.78,6.5-1.17,9.75Z"/>
    <path class="cls-1" d="M46.28,25c-.64-.58-3.33-3.13-3.9-7.33-.2-1.49-.06-2.62.1-3.8.61-4.43,1.17-8.36,1.68-11.76-3.39-.33-8.75-.49-15.04,1.05-4.59,1.12-9.35,2.27-13.82,6.26-5.52,4.93-7.26,11.13-8.19,14.44-.73,2.59-.96,4.55-1.37,9.96-.39,5.07-.84,11.91-1.17,20.15h8.7c.74-4.46,1.49-8.91,2.23-13.37,3.06,1.3,8.59,3.17,15.7,3.04,6.66-.12,11.82-1.95,14.8-3.27.29,4.53.58,9.07.87,13.6h8.59c.73-8.61,1.46-17.22,2.18-25.84-1.27.21-3.68.43-6.48-.43-.94-.29-2.94-.94-4.9-2.7Z"/>
    <path class="cls-3" d="M16.18,53.97h8.6c.69-3.16,1.39-6.32,2.08-9.49-1.39-.1-2.96-.3-4.66-.65-1.61-.33-3.06-.74-4.33-1.16-.56,3.76-1.13,7.53-1.69,11.29Z"/>
    <path class="cls-4" d="M54.02,0s8.57,0,12.57,1.11c5.39,1.76,7.35,4.25,9.7,7.74,3.89,6.49,2.64,20.23,2.54,20.23-1.52,11-10.59,10.47-10.59,10.47-1.56.03-3.08-.43-4.36-1.32-1.2-.79-1.84-1.82-2.09-2.46-.25-.62-.39-1.29-.39-1.97,0-2.91,2.31-5.29,5.2-5.39.62-.02,1.25.25,1.56.79.48.84.15,1.8-.59,2.21-.18.11-.43.18-.6.22-.18.04-.85.11-1.17.39-.36.29-.64.75-.64,1.25,0,.53.21,1.04.57,1.39,1.37,1.39,3.74,1.44,5.66-.54.73-.76,1.11-1.79,1.11-2.85h0c0-2.18-1.45-4.11-3.37-4.97-.28-.14-1.03-.37-1.46-.48l-1.26-.44c-2.11-.98-2.49-2.23-3.01-4.45,0,.64-.07,2.23-1.16,3.7-.87,1.18-1.95,1.69-2.79,2.08-1.79.84-3.39.87-4.22.88-2.38.03-4.14-.7-4.99-1.06-1.63-.69-2.85-1.59-3.69-2.33,0,0-2.36-2.07-3.28-6.18-.21-1-.02-.13-.27-1.81-.01-1.85.43-3.86.47-4.35.6-3.95,1.21-7.9,1.81-11.85"/>
  </g>
  <g id="Ear_flap" data-name="Ear flap">
    <path class="cls-5" d="M54.54,11.37c0,.62-.05,1.64-.66,2.31-.66.62-1.68.67-2.29.67h-6.52c-1.88,0-3.01,0-3.77.1-.41.05-.92.26-1.17.36-.1.05-.1,0-.05-.05L54.95-.5c.05-.05.1-.05.05.05-.1.26-.3.77-.36,1.18-.1.77-.1,1.9-.1,3.8v6.83h0ZM56.43.94"/>
  </g>
</svg>