<?xml version="1.0" encoding="UTF-8"?>
<svg xmlns="http://www.w3.org/2000/svg" viewBox="0 0 74.52 53.97">
  <defs>
    <style>
      .cls-1 {
        fill: #3e3e3e;
      }

      .cls-1, .cls-2, .cls-3, .cls-4 {
        stroke-width: 0px;
      }

      .cls-2 {
        fill: gray;
      }

      .cls-3, .cls-5 {
        fill: gray;
      }

      .cls-5 {
        stroke: #fff;
        stroke-miterlimit: 10;
        stroke-width: .3px;
      }

      .cls-4 {
        fill: #1e5ca4;
      }
    </style>
  </defs>
  <g id="Elliefan">
    <polygon class="cls-2" points="31.4 53.97 39.1 53.97 43 41.47 33.8 42.17 31.4 53.97"/>
    <path class="cls-1" d="M41.7,25c-.64-.58-3.33-3.13-3.9-7.33-.22-1.59-.06-2.93.1-3.8.53-3.78,1.07-7.55,1.6-11.33-3.36-.48-8.69-.83-14.96.61-4.11.94-9.15,2.1-13.82,6.26-5.52,4.93-7.26,11.13-8.19,14.44-.73,2.59-.96,4.55-1.37,9.96-.39,5.07-.84,11.91-1.17,20.15h8.7l1.7-13.6c4.8.4,10.1.7,15.7.7,5.3,0,10.2-.3,14.8-.7v13.6h8.4c.34-4.2.7-8.44,1.1-12.73.4-4.34.83-8.62,1.28-12.85-1.18.05-3-.02-5.08-.68-1.04-.33-2.99-.98-4.9-2.7Z"/>
    <path class="cls-3" d="M11.9,53.97h8.6c.9-3.9,1.9-7.9,2.8-11.8-3.3-.1-6.5-.3-9.8-.4l-1.6,12.2Z"/>
    <path class="cls-4" d="M49.44,0s8.57,0,12.57,1.11c5.39,1.76,7.35,4.25,9.7,7.74,3.89,6.49,2.64,20.23,2.54,20.23-1.52,11-10.59,10.47-10.59,10.47-1.56.03-3.08-.43-4.36-1.32-1.2-.79-1.84-1.82-2.09-2.46-.25-.62-.39-1.29-.39-1.97,0-2.91,2.31-5.29,5.2-5.39.62-.02,1.25.25,1.56.79.48.84.15,1.8-.59,2.21-.18.11-.43.18-.6.22-.18.04-.85.11-1.17.39-.36.29-.64.75-.64,1.25,0,.53.21,1.04.57,1.39,1.37,1.39,3.74,1.44,5.66-.54.73-.76,1.11-1.79,1.11-2.85h0c0-2.18-1.45-4.11-3.37-4.97-.28-.14-1.03-.37-1.46-.48l-1.26-.44c-2.11-.98-2.49-2.23-3.01-4.45,0,.64-.07,2.23-1.16,3.7-.87,1.18-1.95,1.69-2.79,2.08-1.79.84-3.39.87-4.22.88-2.38.03-4.14-.7-4.99-1.06-1.63-.69-2.85-1.59-3.69-2.33,0,0-2.36-2.07-3.28-6.18-.21-1-.02-.13-.27-1.81-.01-1.85.43-3.86.47-4.35.6-3.95,1.21-7.9,1.81-11.85"/>
  </g>
  <g id="Ear_flap" data-name="Ear flap">
    <path class="cls-5" d="M49.96,11.37c0,.62-.05,1.64-.66,2.31-.66.62-1.68.67-2.29.67h-6.52c-1.88,0-3.01,0-3.77.1-.41.05-.92.26-1.17.36-.1.05-.1,0-.05-.05L50.37-.5c.05-.05.1-.05.05.05-.1.26-.3.77-.36,1.18-.1.77-.1,1.9-.1,3.8v6.83h0ZM51.85.94"/>
  </g>
</svg>