<?xml version="1.0" encoding="utf-8"?>
<!-- Generator: Adobe Illustrator 28.0.0, SVG Export Plug-In . SVG Version: 6.00 Build 0)  -->
<svg version="1.1" id="Layer_1" xmlns="http://www.w3.org/2000/svg" xmlns:xlink="http://www.w3.org/1999/xlink" x="0px" y="0px"
	 viewBox="0 0 71.6 54.1" style="enable-background:new 0 0 71.6 54.1;" xml:space="preserve">
<style type="text/css">
	.st0{fill:#254FA3;}
	.st1{fill:#011A30;}
</style>
<polygon class="st0" points="31.2,54.2 39,54.2 42.8,42.2 33.8,42.2 "/>
<path class="st1" d="M56.8,27.2c1.2-0.4,2.2-0.9,3-1.3c-0.5,6.6-1,13.1-1.6,19.7c0,3.7,3,6.7,6.7,6.7h4.7v-6.7h-1.7
	c-0.9,0-1.7-0.7-1.7-1.7c0-0.1,0-0.2,0-0.3L70.9,13c0.1-0.6,0.2-1.2,0.2-1.9C71.1,5.5,66.5,1,61,1H41.8l-2.1,14.5
	c-0.2,1-0.2,2-0.1,3.2c0.6,4.7,4.3,8.4,9,8.9c0.5,0,1.1,0.1,1.9,0.1c1.1,0,1.7,0.1,2.3,0c1,0,1.8-0.1,2.3-0.2c0.4,0,0.7-0.1,0.9-0.1
	"/>
<path class="st0" d="M50.6,29.6c-1.5,0-4-0.3-6.4-1.7c-5.5-3.2-6.3-9.4-6.4-10.1c-0.2-1.6-0.1-2.9,0.1-3.8l1.6-11H25
	C14.7,3,6.3,10.8,5.1,20.8L0,54.2h8.7l3.9-13.6h28.3v13.5h8.4l3.8-24.5h-1.6C51.1,29.6,51.2,29.6,50.6,29.6z"/>
<polygon class="st0" points="12,54.1 20.7,54.1 24.9,42.2 14.9,42.2 "/>
<path class="st1" d="M83.4,23.1"/>
</svg>
