<?xml version="1.0" encoding="utf-8"?>
<!-- Generator: Adobe Illustrator 28.1.0, SVG Export Plug-In . SVG Version: 6.00 Build 0)  -->
<svg version="1.1" id="Layer_1" xmlns="http://www.w3.org/2000/svg" xmlns:xlink="http://www.w3.org/1999/xlink" x="0px" y="0px"
	 viewBox="0 0 72.2 55" style="enable-background:new 0 0 72.2 55;" xml:space="preserve">
<style type="text/css">
	.st0{fill:#808080;}
	.st1{fill:#1E5CA4;}
	.st2{fill:#3E3E3E;}
</style>
<polygon class="st0" points="31.5,55 39.2,55 43.1,42.5 33.9,43.2 "/>
<path class="st1" d="M45.6,27.3c1,0.5,1.8,0.9,3.5,1.3c2.5,0.5,4.4,0.4,4.9,0.3c2.5-0.2,4.6-1,5.9-1.7c1.3-0.7,2.2-1.6,2.8-2.2
	c-0.5,7.5-0.6,7-1.2,13.6c0,4,3.1,7.2,7,7.2h3l0.6-4.4h-1.8c-0.9,0-1.8-0.8-1.8-1.8c0-0.1,0-0.2,0-0.3c1.6-10.9,2-15.4,3.6-26.3
	c0.1-0.9,0.1-2.4-0.4-4c-1.6-5.7-7.6-7.9-8.5-8.2c-2-0.7-3.6-0.8-5.9-0.8C52.1,0,47,0,41.8,0l-2.2,15.6c-0.2,0.9-0.3,2.1-0.1,3.4
	C40.2,23.8,44.6,26.8,45.6,27.3z"/>
<path class="st2" d="M46.5,29.5c-4.3-1.8-8-5.9-8.6-10.8c-0.2-1.6-0.1-2.9,0.1-3.8l1.6-11H25.1c-1.9,0-8.7,0.4-14.7,5.6
	c-5.7,4.9-7.2,11.1-7.6,13c-0.7,3.8-1.4,8-1.9,12.4C0.1,42.3-0.1,49,0.1,55c2.9,0,5.8,0,8.7,0l1.7-13.6c4.8,0.4,10.1,0.7,15.7,0.7
	c5.3,0,10.2-0.3,14.8-0.7c0,4.5,0,9.1,0,13.6h8.4c1.3-8.1,2.5-16.3,3.8-24.4C50.1,30.8,47.8,30,46.5,29.5z"/>
<path class="st0" d="M12,55h8.6c0.9-3.9,1.9-7.9,2.8-11.8c-3.3-0.1-6.5-0.3-9.8-0.4L12,55z"/>
</svg>
