<?xml version="1.0" encoding="utf-8"?>
<!-- Generator: Adobe Illustrator 28.0.0, SVG Export Plug-In . SVG Version: 6.00 Build 0)  -->
<svg version="1.1" id="Layer_1" xmlns="http://www.w3.org/2000/svg" xmlns:xlink="http://www.w3.org/1999/xlink" x="0px" y="0px"
	 viewBox="0 0 71.6 54.1" style="enable-background:new 0 0 71.6 54.1;" xml:space="preserve">
<style type="text/css">
	.st0{fill:#3C3C3C;}
	.st1{fill:#011A30;}
	.st2{fill:#254FA3;}
</style>
<polygon class="st0" points="31.3,54.1 39.1,54.1 42.9,41.6 33.9,41.6 "/>
<path class="st1" d="M71.4,12c0.1-0.6,0.2-1.2,0.2-1.9C71.6,4.5,67,0,61.5,0H42.3l-2.1,14.5c-0.2,1-0.2,2-0.1,3.2
	c0.6,4.7,4.3,8.4,9,8.9c0.4,0.1,0.7,0.1,1.1,0.1h8.6v17.8c0,3.7,3,6.7,6.7,6.7h4.7v-6.7h-1.7c-0.9,0-1.7-0.7-1.7-1.7
	c0-0.1,0-0.2,0-0.3L71.4,12z"/>
<path class="st2" d="M50,29.5c-6.3-0.7-11.4-5.6-12.2-11.8c-0.2-1.3-0.1-2.5,0.1-3.8l1.6-11H25c-10.3,0-18.7,7.8-19.9,17.8L0,54.1
	h8.7l3.9-13.6h28.3V54h8.4l3.8-24.5h-1.6C51.1,29.5,50.6,29.5,50,29.5z"/>
<polygon class="st0" points="12,54.1 20.7,54.1 24.9,41.6 14.9,41.6 "/>
</svg>
